<svg xmlns="http://www.w3.org/2000/svg" width="500" height="500">
	<circle r="250" cx="250" cy="250" style="fill:white" />
    <g>
		<polygon points="250,40 270,80 250,78 230,80" style="fill:#f00;stroke:#f00;stroke-linejoin: round;stroke-linecap: round;stroke-width: 8" />
		<polygon points="250,40 255,80 245,80" style="fill:#d8d8dc;stroke:#d8d8dc;stroke-linejoin: round;stroke-linecap: round;stroke-width: 8" transform="rotate(022.5,250,250)" />
		<polygon points="250,40 255,80 245,80" style="fill:#d8d8dc;stroke:#d8d8dc;stroke-linejoin: round;stroke-linecap: round;stroke-width: 8" transform="rotate(045.0,250,250)" />
		<polygon points="250,40 255,80 245,80" style="fill:#d8d8dc;stroke:#d8d8dc;stroke-linejoin: round;stroke-linecap: round;stroke-width: 8" transform="rotate(067.5,250,250)" />
		<polygon points="250,40 255,80 245,80" style="fill:#6c6c70;stroke:#6c6c70;stroke-linejoin: round;stroke-linecap: round;stroke-width: 8" transform="rotate(090.0,250,250)" />
		<polygon points="250,40 255,80 245,80" style="fill:#d8d8dc;stroke:#d8d8dc;stroke-linejoin: round;stroke-linecap: round;stroke-width: 8" transform="rotate(112.5,250,250)" />
		<polygon points="250,40 255,80 245,80" style="fill:#d8d8dc;stroke:#d8d8dc;stroke-linejoin: round;stroke-linecap: round;stroke-width: 8" transform="rotate(135.0,250,250)" />
		<polygon points="250,40 255,80 245,80" style="fill:#d8d8dc;stroke:#d8d8dc;stroke-linejoin: round;stroke-linecap: round;stroke-width: 8" transform="rotate(157.5,250,250)" />
		<polygon points="250,40 255,80 245,80" style="fill:#6c6c70;stroke:#6c6c70;stroke-linejoin: round;stroke-linecap: round;stroke-width: 8" transform="rotate(180.0,250,250)" />
		<polygon points="250,40 255,80 245,80" style="fill:#d8d8dc;stroke:#d8d8dc;stroke-linejoin: round;stroke-linecap: round;stroke-width: 8" transform="rotate(202.5,250,250)" />
		<polygon points="250,40 255,80 245,80" style="fill:#d8d8dc;stroke:#d8d8dc;stroke-linejoin: round;stroke-linecap: round;stroke-width: 8" transform="rotate(225.0,250,250)" />
		<polygon points="250,40 255,80 245,80" style="fill:#d8d8dc;stroke:#d8d8dc;stroke-linejoin: round;stroke-linecap: round;stroke-width: 8" transform="rotate(247.5,250,250)" />
		<polygon points="250,40 255,80 245,80" style="fill:#6c6c70;stroke:#6c6c70;stroke-linejoin: round;stroke-linecap: round;stroke-width: 8" transform="rotate(270.0,250,250)" />
		<polygon points="250,40 255,80 245,80" style="fill:#d8d8dc;stroke:#d8d8dc;stroke-linejoin: round;stroke-linecap: round;stroke-width: 8" transform="rotate(292.5,250,250)" />
		<polygon points="250,40 255,80 245,80" style="fill:#d8d8dc;stroke:#d8d8dc;stroke-linejoin: round;stroke-linecap: round;stroke-width: 8" transform="rotate(315.0,250,250)" />
		<polygon points="250,40 255,80 245,80" style="fill:#d8d8dc;stroke:#d8d8dc;stroke-linejoin: round;stroke-linecap: round;stroke-width: 8" transform="rotate(337.5,250,250)" />
	</g>
</svg>