<svg xmlns="http://www.w3.org/2000/svg" width="50" height="50">
	<circle r="25" cx="25" cy="25" style="fill:white" />
    <g>
		<polyline points="25,2.5 28.0,7.5 25,7 22.0,7.5 25,2.5" style="fill:#f00;stroke:#f00;stroke-linejoin: round;stroke-linecap: round;stroke-width: 1" />
		<polyline points="25,2.5 25.5,7.5 24.5,7.5 25,2.5" style="fill:#d8d8dc;stroke:#d8d8dc;stroke-linejoin: round;stroke-linecap: round;stroke-width: 1" transform="rotate(22.5,25,25)" />
		<polyline points="25,2.5 25.5,7.5 24.5,7.5 25,2.5" style="fill:#d8d8dc;stroke:#d8d8dc;stroke-linejoin: round;stroke-linecap: round;stroke-width: 1" transform="rotate(45,25,25)" />
		<polyline points="25,2.5 25.5,7.5 24.5,7.5 25,2.5" style="fill:#d8d8dc;stroke:#d8d8dc;stroke-linejoin: round;stroke-linecap: round;stroke-width: 1" transform="rotate(67.5,25,25)" />
		<polyline points="25,2.5 25.5,7.5 24.5,7.5 25,2.5" style="fill:#6c6c70;stroke:#6c6c70;stroke-linejoin: round;stroke-linecap: round;stroke-width: 1" transform="rotate(90,25,25)" />
		<polyline points="25,2.5 25.5,7.5 24.5,7.5 25,2.5" style="fill:#d8d8dc;stroke:#ccc;stroke-linejoin: round;stroke-linecap: round;stroke-width: 1" transform="rotate(112.5,25,25)" />
		<polyline points="25,2.5 25.5,7.5 24.5,7.5 25,2.5" style="fill:#d8d8dc;stroke:#d8d8dc;stroke-linejoin: round;stroke-linecap: round;stroke-width: 1" transform="rotate(135,25,25)" />
		<polyline points="25,2.5 25.5,7.5 24.5,7.5 25,2.5" style="fill:#d8d8dc;stroke:#d8d8dc;stroke-linejoin: round;stroke-linecap: round;stroke-width: 1" transform="rotate(157.5,25,25)" />
		<polyline points="25,2.5 25.5,7.5 24.5,7.5 25,2.5" style="fill:#6c6c70;stroke:#6c6c70;stroke-linejoin: round;stroke-linecap: round;stroke-width: 1" transform="rotate(180,25,25)" />
		<polyline points="25,2.5 25.5,7.5 24.5,7.5 25,2.5" style="fill:#d8d8dc;stroke:#d8d8dc;stroke-linejoin: round;stroke-linecap: round;stroke-width: 1" transform="rotate(202.5,25,25)" />
		<polyline points="25,2.5 25.5,7.5 24.5,7.5 25,2.5" style="fill:#d8d8dc;stroke:#d8d8dc;stroke-linejoin: round;stroke-linecap: round;stroke-width: 1" transform="rotate(225,25,25)" />
		<polyline points="25,2.5 25.5,7.5 24.5,7.5 25,2.5" style="fill:#d8d8dc;stroke:#d8d8dc;stroke-linejoin: round;stroke-linecap: round;stroke-width: 1" transform="rotate(247.5,25,25)" />
		<polyline points="25,2.5 25.5,7.5 24.5,7.5 25,2.5" style="fill:#6c6c70;stroke:#6c6c70;stroke-linejoin: round;stroke-linecap: round;stroke-width: 1" transform="rotate(270,25,25)" />
		<polyline points="25,2.5 25.5,7.5 24.5,7.5 25,2.5" style="fill:#d8d8dc;stroke:#d8d8dc;stroke-linejoin: round;stroke-linecap: round;stroke-width: 1" transform="rotate(292.5,25,25)" />
		<polyline points="25,2.5 25.5,7.5 24.5,7.5 25,2.5" style="fill:#d8d8dc;stroke:#d8d8dc;stroke-linejoin: round;stroke-linecap: round;stroke-width: 1" transform="rotate(315,25,25)" />
		<polyline points="25,2.5 25.5,7.5 24.5,7.5 25,2.5" style="fill:#d8d8dc;stroke:#d8d8dc;stroke-linejoin: round;stroke-linecap: round;stroke-width: 1" transform="rotate(337.5,25,25)" />
	</g>
</svg>