<svg xmlns="http://www.w3.org/2000/svg" width="400" height="400">
	<circle r="200" cx="200" cy="200" style="fill:white" />
    <g>
		<polyline points="200,20 224,60 200,56 176,60 200,20" style="fill:#f00;stroke:#f00;stroke-linejoin: round;stroke-linecap: round;stroke-width: 8" />
		<polyline points="200,20 204,60 196,60 200,20" style="fill:#d8d8dc;stroke:#d8d8dc;stroke-linejoin: round;stroke-linecap: round;stroke-width: 8" transform="rotate(022.5,200,200)" />
		<polyline points="200,20 204,60 196,60 200,20" style="fill:#d8d8dc;stroke:#d8d8dc;stroke-linejoin: round;stroke-linecap: round;stroke-width: 8" transform="rotate(045.0,200,200)" />
		<polyline points="200,20 204,60 196,60 200,20" style="fill:#d8d8dc;stroke:#d8d8dc;stroke-linejoin: round;stroke-linecap: round;stroke-width: 8" transform="rotate(067.5,200,200)" />
		<polyline points="200,20 204,60 196,60 200,20" style="fill:#6c6c70;stroke:#6c6c70;stroke-linejoin: round;stroke-linecap: round;stroke-width: 8" transform="rotate(090.0,200,200)" />
		<polyline points="200,20 204,60 196,60 200,20" style="fill:#d8d8dc;stroke:#d8d8dc;stroke-linejoin: round;stroke-linecap: round;stroke-width: 8" transform="rotate(112.5,200,200)" />
		<polyline points="200,20 204,60 196,60 200,20" style="fill:#d8d8dc;stroke:#d8d8dc;stroke-linejoin: round;stroke-linecap: round;stroke-width: 8" transform="rotate(135.0,200,200)" />
		<polyline points="200,20 204,60 196,60 200,20" style="fill:#d8d8dc;stroke:#d8d8dc;stroke-linejoin: round;stroke-linecap: round;stroke-width: 8" transform="rotate(157.5,200,200)" />
		<polyline points="200,20 204,60 196,60 200,20" style="fill:#6c6c70;stroke:#6c6c70;stroke-linejoin: round;stroke-linecap: round;stroke-width: 8" transform="rotate(180.0,200,200)" />
		<polyline points="200,20 204,60 196,60 200,20" style="fill:#d8d8dc;stroke:#d8d8dc;stroke-linejoin: round;stroke-linecap: round;stroke-width: 8" transform="rotate(202.5,200,200)" />
		<polyline points="200,20 204,60 196,60 200,20" style="fill:#d8d8dc;stroke:#d8d8dc;stroke-linejoin: round;stroke-linecap: round;stroke-width: 8" transform="rotate(225.0,200,200)" />
		<polyline points="200,20 204,60 196,60 200,20" style="fill:#d8d8dc;stroke:#d8d8dc;stroke-linejoin: round;stroke-linecap: round;stroke-width: 8" transform="rotate(247.5,200,200)" />
		<polyline points="200,20 204,60 196,60 200,20" style="fill:#6c6c70;stroke:#6c6c70;stroke-linejoin: round;stroke-linecap: round;stroke-width: 8" transform="rotate(270.0,200,200)" />
		<polyline points="200,20 204,60 196,60 200,20" style="fill:#d8d8dc;stroke:#d8d8dc;stroke-linejoin: round;stroke-linecap: round;stroke-width: 8" transform="rotate(292.5,200,200)" />
		<polyline points="200,20 204,60 196,60 200,20" style="fill:#d8d8dc;stroke:#d8d8dc;stroke-linejoin: round;stroke-linecap: round;stroke-width: 8" transform="rotate(315.0,200,200)" />
		<polyline points="200,20 204,60 196,60 200,20" style="fill:#d8d8dc;stroke:#d8d8dc;stroke-linejoin: round;stroke-linecap: round;stroke-width: 8" transform="rotate(337.5,200,200)" />
	</g>
</svg>